<mxfile host="app.diagrams.net" modified="2024-04-10T16:19:10.179Z" agent="Mozilla/5.0 (Windows NT 10.0; Win64; x64) AppleWebKit/537.36 (KHTML, like Gecko) Chrome/125.0.0.0 Safari/537.36 Edg/125.0.0.0" etag="K1fqgMt9lfZyEI_4JFZZ" version="24.2.0" type="github">
  <diagram id="C5RBs43oDa-KdzZeNtuy" name="Page-1">
    <mxGraphModel dx="1282" dy="543" grid="1" gridSize="10" guides="1" tooltips="1" connect="1" arrows="1" fold="1" page="1" pageScale="1" pageWidth="827" pageHeight="1169" math="0" shadow="0">
      <root>
        <mxCell id="WIyWlLk6GJQsqaUBKTNV-0" />
        <mxCell id="WIyWlLk6GJQsqaUBKTNV-1" parent="WIyWlLk6GJQsqaUBKTNV-0" />
        <mxCell id="3faFdH3WWiOw5at9z-5F-0" value="&lt;h1 style=&quot;margin-top: 0px;&quot;&gt;平衡车制作&lt;/h1&gt;&lt;p&gt;这个流程图适合于全部内核的单片机.&lt;/p&gt;" style="text;html=1;whiteSpace=wrap;overflow=hidden;rounded=0;" vertex="1" parent="WIyWlLk6GJQsqaUBKTNV-1">
          <mxGeometry y="10" width="180" height="120" as="geometry" />
        </mxCell>
        <mxCell id="3faFdH3WWiOw5at9z-5F-5" value="" style="edgeStyle=orthogonalEdgeStyle;rounded=0;orthogonalLoop=1;jettySize=auto;html=1;" edge="1" parent="WIyWlLk6GJQsqaUBKTNV-1" source="3faFdH3WWiOw5at9z-5F-1" target="3faFdH3WWiOw5at9z-5F-4">
          <mxGeometry relative="1" as="geometry" />
        </mxCell>
        <mxCell id="3faFdH3WWiOw5at9z-5F-1" value="平衡" style="rounded=0;whiteSpace=wrap;html=1;" vertex="1" parent="WIyWlLk6GJQsqaUBKTNV-1">
          <mxGeometry x="20" y="120" width="120" height="60" as="geometry" />
        </mxCell>
        <mxCell id="3faFdH3WWiOw5at9z-5F-7" value="" style="edgeStyle=orthogonalEdgeStyle;rounded=0;orthogonalLoop=1;jettySize=auto;html=1;" edge="1" parent="WIyWlLk6GJQsqaUBKTNV-1" source="3faFdH3WWiOw5at9z-5F-4" target="3faFdH3WWiOw5at9z-5F-6">
          <mxGeometry relative="1" as="geometry" />
        </mxCell>
        <mxCell id="3faFdH3WWiOw5at9z-5F-11" value="" style="edgeStyle=orthogonalEdgeStyle;rounded=0;orthogonalLoop=1;jettySize=auto;html=1;" edge="1" parent="WIyWlLk6GJQsqaUBKTNV-1" source="3faFdH3WWiOw5at9z-5F-4" target="3faFdH3WWiOw5at9z-5F-10">
          <mxGeometry relative="1" as="geometry" />
        </mxCell>
        <mxCell id="3faFdH3WWiOw5at9z-5F-4" value="单片机每隔一段时间检测MPU6050的值，当值变换时，即使调整姿态" style="rounded=0;whiteSpace=wrap;html=1;" vertex="1" parent="WIyWlLk6GJQsqaUBKTNV-1">
          <mxGeometry x="170" y="120" width="120" height="60" as="geometry" />
        </mxCell>
        <mxCell id="3faFdH3WWiOw5at9z-5F-9" value="" style="edgeStyle=orthogonalEdgeStyle;rounded=0;orthogonalLoop=1;jettySize=auto;html=1;" edge="1" parent="WIyWlLk6GJQsqaUBKTNV-1" source="3faFdH3WWiOw5at9z-5F-6" target="3faFdH3WWiOw5at9z-5F-8">
          <mxGeometry relative="1" as="geometry" />
        </mxCell>
        <mxCell id="3faFdH3WWiOw5at9z-5F-12" style="edgeStyle=orthogonalEdgeStyle;rounded=0;orthogonalLoop=1;jettySize=auto;html=1;" edge="1" parent="WIyWlLk6GJQsqaUBKTNV-1" source="3faFdH3WWiOw5at9z-5F-6">
          <mxGeometry relative="1" as="geometry">
            <mxPoint x="470" y="230" as="targetPoint" />
            <Array as="points">
              <mxPoint x="380" y="230" />
              <mxPoint x="441" y="230" />
            </Array>
          </mxGeometry>
        </mxCell>
        <mxCell id="3faFdH3WWiOw5at9z-5F-6" value="调整姿态：通过控制两个电机来实现" style="rounded=0;whiteSpace=wrap;html=1;" vertex="1" parent="WIyWlLk6GJQsqaUBKTNV-1">
          <mxGeometry x="320" y="120" width="120" height="60" as="geometry" />
        </mxCell>
        <mxCell id="3faFdH3WWiOw5at9z-5F-23" style="edgeStyle=orthogonalEdgeStyle;rounded=0;orthogonalLoop=1;jettySize=auto;html=1;entryX=0.5;entryY=0;entryDx=0;entryDy=0;" edge="1" parent="WIyWlLk6GJQsqaUBKTNV-1" source="3faFdH3WWiOw5at9z-5F-8" target="3faFdH3WWiOw5at9z-5F-24">
          <mxGeometry relative="1" as="geometry">
            <mxPoint x="700" y="290" as="targetPoint" />
            <Array as="points">
              <mxPoint x="701" y="150" />
            </Array>
          </mxGeometry>
        </mxCell>
        <mxCell id="3faFdH3WWiOw5at9z-5F-8" value="精准控制：使用PID算法" style="rounded=0;whiteSpace=wrap;html=1;" vertex="1" parent="WIyWlLk6GJQsqaUBKTNV-1">
          <mxGeometry x="470" y="120" width="120" height="60" as="geometry" />
        </mxCell>
        <mxCell id="3faFdH3WWiOw5at9z-5F-10" value="初始化定时器，设置每10ms触发中断" style="shape=parallelogram;perimeter=parallelogramPerimeter;whiteSpace=wrap;html=1;fixedSize=1;rounded=0;" vertex="1" parent="WIyWlLk6GJQsqaUBKTNV-1">
          <mxGeometry x="155" y="300" width="150" height="60" as="geometry" />
        </mxCell>
        <mxCell id="3faFdH3WWiOw5at9z-5F-22" value="" style="edgeStyle=orthogonalEdgeStyle;rounded=0;orthogonalLoop=1;jettySize=auto;html=1;" edge="1" parent="WIyWlLk6GJQsqaUBKTNV-1" source="3faFdH3WWiOw5at9z-5F-18" target="3faFdH3WWiOw5at9z-5F-21">
          <mxGeometry relative="1" as="geometry" />
        </mxCell>
        <mxCell id="3faFdH3WWiOw5at9z-5F-18" value="&lt;span style=&quot;text-wrap: nowrap;&quot;&gt;如何控制电机：&lt;/span&gt;&lt;div style=&quot;text-wrap: nowrap;&quot;&gt;通过控制电机驱动&lt;/div&gt;" style="whiteSpace=wrap;html=1;" vertex="1" parent="WIyWlLk6GJQsqaUBKTNV-1">
          <mxGeometry x="470" y="200" width="120" height="60" as="geometry" />
        </mxCell>
        <mxCell id="3faFdH3WWiOw5at9z-5F-19" value="&lt;font style=&quot;font-size: 18px;&quot;&gt;单片机实现：&lt;/font&gt;" style="text;html=1;align=center;verticalAlign=middle;resizable=0;points=[];autosize=1;strokeColor=none;fillColor=none;" vertex="1" parent="WIyWlLk6GJQsqaUBKTNV-1">
          <mxGeometry x="15" y="280" width="130" height="40" as="geometry" />
        </mxCell>
        <mxCell id="3faFdH3WWiOw5at9z-5F-21" value="初始化GPIO，&lt;div&gt;配置PWM&lt;/div&gt;" style="shape=parallelogram;perimeter=parallelogramPerimeter;whiteSpace=wrap;html=1;fixedSize=1;" vertex="1" parent="WIyWlLk6GJQsqaUBKTNV-1">
          <mxGeometry x="470" y="300" width="120" height="60" as="geometry" />
        </mxCell>
        <mxCell id="3faFdH3WWiOw5at9z-5F-24" value="编写PID控制算法" style="shape=parallelogram;perimeter=parallelogramPerimeter;whiteSpace=wrap;html=1;fixedSize=1;" vertex="1" parent="WIyWlLk6GJQsqaUBKTNV-1">
          <mxGeometry x="640" y="300" width="120" height="60" as="geometry" />
        </mxCell>
      </root>
    </mxGraphModel>
  </diagram>
</mxfile>
